<svg xmlns="http://www.w3.org/2000/svg" enable-background="new 0 0 24 24" viewBox="0 0 24 24" id="etsy"><path fill="#110638" d="M20.963,24c-0.006,0-0.013,0-0.019,0c-6.26-0.231-11.497-0.231-18.678,0C2.129,24.006,2,23.954,1.902,23.859C1.805,23.765,1.75,23.635,1.75,23.5v-1.309c0-0.239,0.168-0.444,0.403-0.49l0.774-0.148c1.802-0.337,1.91-0.403,1.92-1.177c0.094-3.827,0.175-12.608,0-16.503C4.817,3.011,4.816,2.978,2.943,2.638L2.156,2.493C1.92,2.448,1.75,2.241,1.75,2.001V0.693c0-0.135,0.055-0.265,0.152-0.359c0.097-0.094,0.226-0.158,0.364-0.14l0.237,0.007c3.841,0.125,12.835,0.417,18.124-0.197c0.15-0.021,0.299,0.033,0.407,0.139c0.108,0.105,0.163,0.253,0.149,0.403c-0.175,1.931-0.39,6.428-0.392,6.474c-0.013,0.267-0.232,0.476-0.5,0.476H19.11c-0.229,0-0.428-0.155-0.484-0.376l-0.169-0.681c-0.53-2.168-0.964-3.589-2.126-3.589H9.373c-0.017,0-0.032,0-0.046,0v7.91c2.568,0.035,3.93-0.127,3.944-0.128c0.98-0.033,0.98-0.033,1.424-2.043l0.207-0.921c0.052-0.227,0.254-0.388,0.487-0.388h1.308c0.136,0,0.267,0.056,0.361,0.154c0.094,0.098,0.144,0.231,0.138,0.367L17.106,9.84c-0.096,2.1-0.096,2.1-0.047,4.049l0.05,2.105c0.003,0.134-0.048,0.264-0.143,0.36s-0.223,0.15-0.357,0.15h-1.308c-0.234,0-0.436-0.162-0.488-0.39c-0.061-0.27-0.114-0.523-0.164-0.76c-0.354-1.692-0.487-1.995-1.362-2.008c-0.047-0.003-1.05-0.093-3.961-0.102v6.636c0,0.879,0.297,1.464,1.747,1.464h4.533c2.555,0,2.847-0.706,4.078-3.677c0.146-0.353,0.303-0.732,0.477-1.141c0.079-0.185,0.26-0.304,0.46-0.304h1.13c0.146,0,0.286,0.064,0.38,0.176c0.095,0.111,0.137,0.259,0.113,0.404c-0.08,0.494-0.692,5.589-0.783,6.736C21.44,23.8,21.222,24,20.963,24z M2.75,22.604v0.379c6.764-0.209,11.83-0.21,17.758,0c0.138-1.377,0.499-4.43,0.669-5.76h-0.226c-0.123,0.291-0.236,0.567-0.344,0.827c-1.221,2.949-1.778,4.294-5.001,4.294h-4.533c-2.27,0-2.747-1.34-2.747-2.464v-7.137c0-0.276,0.224-0.5,0.5-0.5c3.361,0,4.47,0.101,4.516,0.105c1.706,0.024,1.962,1.25,2.287,2.801c0.024,0.114,0.049,0.232,0.075,0.354h0.394l-0.038-1.591c-0.049-1.985-0.049-1.985,0.048-4.12l0.067-1.517H15.79l-0.118,0.525c-0.458,2.071-0.612,2.768-2.335,2.824c-0.032,0.004-1.578,0.151-4.514,0.129c-0.274-0.002-0.496-0.226-0.496-0.5V2.849c0-0.43,0.108-1,1.046-1h6.957c2.034,0,2.599,2.312,3.098,4.351l0.073,0.295h0.314c0.054-1.078,0.191-3.742,0.321-5.433C14.852,1.585,6.604,1.333,2.75,1.209v0.376l0.372,0.069c1.83,0.332,2.665,0.483,2.725,2.178c0.184,4.103,0.089,12.953,0,16.562c-0.021,1.633-1.043,1.824-2.736,2.141L2.75,22.604z"></path></svg>