<?xml version="1.0" encoding="utf-8"?>
<!-- Generator: Adobe Illustrator 25.4.8, SVG Export Plug-In . SVG Version: 6.00 Build 0)  -->
<svg version="1.1" id="Layer_1" xmlns="http://www.w3.org/2000/svg" xmlns:xlink="http://www.w3.org/1999/xlink" x="0px" y="0px"
	 viewBox="0 0 800 800" style="enable-background:new 0 0 800 800;" xml:space="preserve">
<style type="text/css">
	.st0{opacity:0.9;}
	.st1{fill:#231F20;}
</style>
<g class="st0">
	<g>
		<polygon class="st1" points="554.91,203.41 555.98,203.75 558.15,201.7 		"/>
		<path class="st1" d="M570.49,196.64c-0.53-0.18-0.39-0.69-0.93-0.87l-8.66,6.31C565.67,203.65,567.33,195.55,570.49,196.64z"/>
		<path class="st1" d="M573.38,196.53c3.9,0.31,5.04-2.03,5.78-2.88C578.17,195.48,572.16,194.46,573.38,196.53z"/>
		<path class="st1" d="M623.69,393.8c-0.39-0.41-0.97-0.95-1.44-1.36C622.81,393.14,623.31,393.58,623.69,393.8z"/>
		<path class="st1" d="M681.15,464.55l1.9,0.04c-5.13-6.58-9.42-14.14-13.75-21.84c-2.17-3.85-4.31-7.73-6.63-11.53
			c-2.31-3.79-4.84-7.44-7.59-10.81l1.16,0.63c-3.82-5.65-7.84-11.06-12.05-16.19c-2.1-2.57-4.25-5.07-6.43-7.5l-1.39-1.52
			l-1.35-1.44c-0.91-0.96-1.83-1.92-2.78-2.88c0.95-1.14,1.9-2.3,2.85-3.48c1.02-1.3,2.03-2.59,3.04-3.89
			c2.25-2.93,4.43-5.9,6.55-8.91c4.21-6.03,8.15-12.21,11.81-18.55c3.7-6.32,7.02-12.85,10.33-19.45c3.3-6.6,6.52-13.28,9.6-20.12
			c-0.13,0.69,0.21,1.11,0.07,1.82c0.4-2.14,0.46-4.68,1.58-6.74c0.59-0.39,0.42,0.92,0.25,1.68c3.21-3.55,5.63-9.9,7.55-15.92
			c1.95-6.02,3.4-11.71,5.33-14.06c0.56-2.54-0.16-3.97-1.45-2.9c2.55-8.01,4.7-16.28,6.07-24.71c0.74-4.21,1.13-8.45,1.41-12.69
			l0.07-3.18l0.03-1.59l-0.05-1.58l-0.11-3.16l-0.32-3.12c-0.06-0.52-0.09-1.04-0.17-1.55l-0.27-1.53
			c-0.19-1.02-0.32-2.05-0.57-3.04l-0.77-2.97l-0.19-0.74l-0.25-0.72l-0.51-1.43c-0.59-1.94-1.57-3.69-2.38-5.49
			c-1.05-1.67-1.95-3.42-3.22-4.91c-2.33-3.11-5.15-5.78-8.37-7.91c-3.21-2.14-6.69-3.87-10.38-5.15c-1.24-0.92-1.25-1.7-0.5-2.43
			c-6.85-1.51-13.83-2.34-20.99-2.73c-7.14-0.41-14.42-0.47-21.78-0.27c-14.72,0.44-29.75,1.78-44.56,4.03
			c-0.92,1.36,3.21,0.69,0.53,2.41c4.84-0.1,9.03-1.52,13.16-2.74c4.12-1.24,8.19-2.3,12.58-1.69l-0.98,1.24
			c6.27,0.13,0.98-3.02,7.58-2.1c2.61,0.74-0.52,1.49,0.66,1.48c6.56-0.74,13.26-0.85,19.77-0.84c6.52,0.01,12.84,0.11,18.96-0.15
			c0.61,0.75,1.73,1.3,3.14,1.75c1.38,0.49,3.04,0.91,4.73,1.39c1.65,0.53,3.39,1.03,4.81,1.79c0.72,0.37,1.41,0.71,1.97,1.15
			c0.56,0.44,1.03,0.91,1.39,1.39c1.6,0.14,2.92,0.78,4.17,1.14c1.23,0.39,2.21,0.72,3.17,0.35c4.12,3.01,7.54,6.65,10.06,10.92
			c2.54,4.26,4.22,9.13,5.18,14.34c0.97,5.21,1.17,10.73,0.9,16.34c-0.28,5.61-1.05,11.3-2.15,17c-1.09,5.7-2.56,11.4-4.27,17.06
			c-1.71,5.66-3.66,11.29-5.8,16.87c-4.32,11.16-9.4,22.11-15.06,32.8c-1.54,5.44-3.87,10.8-6.69,16.16
			c-2.78,5.29-6.16,10.48-9.87,15.58c-3.71,5.1-7.75,10.1-11.88,15.07c-2.07,2.48-4.15,4.97-6.24,7.47
			c-3.18,3.78-6.37,7.56-9.56,11.35c0.7,0.71,1.41,1.43,2.12,2.15c-0.01,0.24-0.26,0.23-0.62,0.04c2.72,2.51,5.56,5.23,8.26,8
			c1.85,1.8,3.73,3.79,5.59,5.87c3.7,4.17,7.22,8.78,10.03,13.17c2.27,1.99,4.5,4.03,6.72,6.1c1.98,3.42,3.94,6.85,5.81,10.33
			c1.89,3.5,3.79,7.01,5.69,10.52c3.78,7.01,7.48,14.05,11.02,21.17c7.07,14.22,13.51,28.78,18.09,43.8
			c2.24,7.51,3.97,15.14,4.83,22.78c0.86,7.63,0.64,15.27-0.96,22.46c-1.77,7.11-4.98,13.74-9.99,18.91
			c-4.86,5.3-11.32,9.12-18.24,11.9c-6.72,2.73-13.9,4.39-21.11,5.48c-7.22,1.07-14.52,1.54-21.79,1.59
			c-14.56,0.09-28.97-1.24-43.23-3.19c-7.14-0.98-14.23-2.12-21.4-3.34c-7.06-1.17-13.97-2.55-20.9-4.22
			c-6.91-1.66-13.8-3.53-20.66-5.67c-3.43-1.06-6.86-2.19-10.27-3.38l-1.28-0.44c-0.16-0.05-0.54-0.2-0.87-0.33l-1.01-0.39
			c-1.36-0.53-2.64-0.99-4.05-1.56c-2.74-1.1-5.49-2.2-8.24-3.3c-1.95,3.64-3.85,7.3-5.76,10.8c-1.33,2.46-2.66,4.95-4,7.44
			c-2.43,4.46-4.98,8.95-7.64,13.43c-0.32-0.34-0.86-0.03,0.04-1.62c-5.52,8.58-11.73,16.03-18.22,23.16
			c-6.48,7.21-12.95,14.12-19.26,21.41l-0.3-0.37c-7.57,9.27-16.1,18.04-25.4,26.01c-9.33,7.91-19.45,15.05-30.26,20.48
			c-5.41,2.69-10.99,4.9-16.68,6.4c-5.68,1.49-11.46,2.24-17.11,1.92c-5.65-0.31-11.15-1.71-16.25-4.11
			c-5.09-2.41-9.75-5.76-14.01-9.56c-4.62-5.11-8.56-10.99-11.97-17.26c-3.41-6.28-6.33-12.95-8.86-19.84
			c-5.05-13.8-8.73-28.42-11.68-43.27c-1.46-7.43-2.74-14.93-3.89-22.47c-1.15-7.55-2.3-15.06-2.98-22.62
			c-0.73-7.56-1.14-15.13-1.28-22.67c-0.06-3.77-0.05-7.53,0.03-11.29c0.04-1.83,0.11-3.86,0.19-5.79c0.09-1.94,0.19-3.86,0.3-5.75
			c-0.42-0.06-0.84-0.12-1.26-0.18l1.05-0.78c-3.44-0.41-6.79-0.91-9.9-1.43c-2.94-0.51-5.86-1.06-8.76-1.71
			c-5.8-1.28-11.53-2.83-17.15-4.63c-5.63-1.8-11.16-3.85-16.59-6.1c-5.43-2.25-10.74-4.76-16.05-7.32
			c-10.6-5.12-21-10.57-31.16-16.45c-10.15-5.88-20.09-12.14-29.64-19.06c-4.61-3.93-9.11-8.02-13.33-12.36
			c-4.21-4.35-8.14-8.97-11.45-14.02c-3.3-5.03-5.96-10.52-7.33-16.39c-1.41-5.86-1.52-12.07-0.29-18.14
			c1.18-6.09,3.77-11.93,7-17.34c3.26-5.42,7.24-10.41,11.61-15c8.77-9.17,19-16.75,29.74-23c7.05-3.26,14.22-7.3,21.56-11.67
			c7.34-4.36,14.84-9.05,22.37-13.61c3.77-2.28,7.52-4.54,11.29-6.69c3.79-2.12,7.58-4.13,11.39-5.87c7.6-3.52,15.18-6.16,22.4-7.41
			c3.57-0.79,7.13-1.54,10.67-2.27c4.06-0.86,8.11-1.71,12.13-2.55l-0.32-5.6l-0.16-2.92l-0.08-1.48l-0.03-0.67l-0.02-0.6
			c-0.12-3.2-0.18-6.4-0.24-9.59c-0.09-6.38-0.09-12.74,0.08-19.08c0.16-6.34,0.46-12.67,0.9-19c0.46-6.36,0.91-12.75,1.45-19.1
			c1.06-12.72,2.4-25.45,4.51-38.16c2.12-12.7,4.98-25.43,9.68-37.82c3.22-6.16,6.79-12.15,10.98-17.71
			c4.18-5.55,9.03-10.7,14.82-14.7c5.76-4.03,12.43-6.86,19.42-8.07c7.01-1.12,14.18-0.73,21.06,0.67
			c6.87,1.45,13.45,3.86,19.71,6.79c6.26,2.94,12.19,6.43,17.83,10.26c11.27,7.69,21.37,16.72,30.38,26.55
			c10.51,7.17,19.3,17.22,27.92,27.77c8.54,10.67,16.22,22.22,24.81,33.08l0.35-1.49c0.43,1.38,1.04,2.68,1.79,3.89
			c0.38,0.61,0.78,1.2,1.22,1.78c0.45,0.6,0.86,1.07,1.42,1.76c1.07,1.28,2.19,2.47,3.25,3.57c1.07,1.09,2.05,2.04,2.93,2.9
			c2.36-1.5,4.25-2.66,6.03-3.31c1.76-0.64,3.59-0.86,5.33-0.26l-0.89,0.61c2.94,0.26,5.21-2.29,7.35-4.69
			c2.12-2.39,4.1-4.62,6.15-3.64l0.39-1.53c6.04-2.4,1.2,1.16,6.1,0.13c1.74-0.71-0.05-2.53,3.93-2.95
			c1.19,2.46,4.87,1.04,8.57-0.18c3.69-1.24,7.41-2.27,8.34,0.62c-3.36,0.84,5.82,0.98-1.4,4.1c1.14,0.02,4.26-0.65,6.91-1.6
			c2.66-0.91,4.86-2.14,4.13-3.3c0.33-2.86,3.97-6.09-2.9-6.77l-0.87,2.23c-2.6-1.46-1.87-0.61-2.98-1.89
			c-8.48,1.74-10.32-0.72-16.73-0.19c0.08,0.04,0.15,0.08,0.09,0.2c-3.47,3.46-9.51,3.85-12.85,4.63l-1.65-0.62
			c-1.35-0.75-3.37,1.11-4.84,2.64c-1.48,1.51-2.46,2.63-1.89,0.31c-2.92,1.27-5.92,2.56-9.07,3.93c-0.39,0.17-0.79,0.34-1.19,0.52
			l-0.59,0.28c-0.34,0.17-0.68,0.33-1.03,0.5c-0.53,0.27-1.08,0.55-1.65,0.84c-0.28-0.36-0.56-0.73-0.84-1.11
			c-0.36-0.49-0.73-0.98-1.1-1.48c-0.85-1.17-1.71-2.35-2.57-3.54c-0.93-1.25-1.86-2.5-2.8-3.77c-3.78-5.04-7.8-10.09-11.95-14.96
			c-1.47-0.58-3.92-3.48-5.97-5.55c-2.06-2.06-3.64-3.34-3.27-0.76c-0.42-2.95-3.03-7.28-6.13-11.28c-0.78-0.99-1.58-1.98-2.37-2.92
			c-0.78-0.91-1.56-1.79-2.3-2.6c-1.49-1.62-2.84-2.99-3.83-3.92c0.36-0.08,0.78-0.17,1.3,0.51c-2.24-5.22-5.21-6.69-8.02-8.15
			c-2.82-1.47-5.47-2.94-7.36-8.25c-1.84,0.85-4.96-2.42-8.63-5.89c-3.64-3.49-7.92-7.15-11.49-7.22c-0.45-1.42-0.32-2.25,0.45-2.5
			c-7.08-5.67-14.65-11.62-22.55-16.83c-7.86-5.24-16.12-9.67-23.95-12.52c-3.65-0.36-7.47-1.23-11.58-1.94
			c-4.07-0.8-8.45-1.4-12.87-1.58c-1.11,0-2.22-0.01-3.32-0.01c-1.1,0-2.21,0.15-3.3,0.24c-2.18,0.15-4.3,0.68-6.31,1.18
			c-1.01,0.25-1.96,0.67-2.9,1.02c-0.92,0.39-1.84,0.73-2.66,1.22c-1.65,0.98-3.15,1.99-4.36,3.16c-5,1.76-11.33,5.05-16.85,9.95
			c-5.55,4.85-10.21,11.11-12.95,17.47l0.24-1.43c-4.02,6.7-7.64,14.54-10.05,22.02c-2.43,7.48-3.81,14.57-3.77,19.78
			c-5.33,3.02-6.11,9.49-8.76,15.42c-0.05,5.03-1.1,12.35-1.98,20.31c-0.88,7.95-1.61,16.54-1.44,23.94
			c-1.11,1.03-1.19,4.05-1.36,6.89c-0.16,2.9-0.39,5.59-1.85,5.88c0.52,8.65,1.1,17.62,1.9,26.81c0.4,4.6,0.84,9.25,1.35,13.94
			c0.13,1.17,0.26,2.35,0.39,3.53l0.2,1.77l0.11,0.75c0.15,1.01,0.29,2.03,0.44,3.05c-1.67,0.49-3.34,0.98-5.03,1.47
			c-3.33,0.99-6.65,2.02-9.98,3.08c-6.65,2.12-13.29,4.36-19.85,6.74c-6.57,2.38-13.06,4.88-19.43,7.49
			c-6.27,2.55-12.46,5.06-18.5,7.52l0.47-0.48c-4.35,4.06-8.49,10.29-12.5,14.92c-0.62,0.06-0.8-0.39,0.27-0.98
			c-6.68,4.4-14.61,5.83-21.12,10.72c-0.21-0.44-0.21-0.44,0.64-1.54c-1.42,1.3-3.03,2.38-4.73,3.39c-1.71,0.99-3.51,1.95-5.32,2.96
			c-1.83,0.99-3.63,2.13-5.38,3.41c-1.72,1.33-3.37,2.83-4.78,4.71l-0.88-0.27c-1.27,1.51-2.54,3.01-3.75,4.57
			c-0.52-0.8-1.32-2.08,1.29-3.86c-1.74,1.4-3.43,2.89-5.13,4.38c-1.66,1.55-3.35,3.04-4.95,4.69c-3.26,3.19-6.32,6.69-9.21,10.39
			c-2.9,3.7-5.47,7.78-7.74,12.08c-2.27,4.32-4,9.06-5.17,13.99c-0.25,1.25-0.57,2.47-0.73,3.75l-0.45,3.82
			c-0.11,2.57-0.23,5.14,0.05,7.7c0.11,2.58,0.67,5.08,1.14,7.58c0.68,2.44,1.32,4.9,2.29,7.19c0.44,1.17,0.89,2.34,1.45,3.43
			c0.54,1.11,1.06,2.23,1.63,3.31c1.22,2.1,2.4,4.24,3.8,6.19c1.31,2.03,2.81,3.86,4.26,5.74c0.75,0.91,1.53,1.78,2.3,2.67
			l1.16,1.33l1.21,1.26l2.42,2.51l2.51,2.39c0.83,0.81,1.69,1.57,2.56,2.32l2.59,2.26c3.53,2.89,7.11,5.72,10.82,8.29
			c7.37,5.24,15.06,9.86,22.85,14.2c15.64,8.64,31.77,15.92,48.01,22.94l-2.77-0.18c4.47,1.33,8.98,2.48,13.48,3.56
			c-0.24,0.43-0.94,0.44-1.63,0.4c7.93,3.78,16.58,6.22,25.25,8.02c4.34,0.9,8.69,1.65,13,2.36c1.05,0.17,2.11,0.34,3.15,0.51
			c0.65,0.1,1.3,0.19,1.95,0.29c1.21,0.18,2.41,0.38,3.54,0.6c-0.01,0.1-0.02,0.19-0.03,0.28c-0.14,0.09-0.3,0.1-0.48,0.13
			c-0.79,0.31-1.58,0.72-1.43,1.12c-0.03,0.01-0.07,0.08-0.1,0.16c0.59,0.7,0.61,2.15,0.44,3.28c-0.03,0.1-0.11,0.98-0.19,1.55
			c-0.09,0.62-0.17,1.23-0.25,1.82c-0.18,1.18-0.34,2.31-0.5,3.39c-0.61,4.31-0.73,7.89,2.01,11.03c-0.24,0.59-1.45,1.02-1.91-0.27
			c0.58,8.87,1.43,17.76,2.63,26.62c0.29,2.22,0.61,4.43,0.95,6.64l1.01,6.56c0.7,4.38,1.41,8.76,2.11,13.14
			c2.94,17.55,6.46,35.13,11.8,52.28c3.58,6.67,7.02,13.55,10.83,20.38c3.83,6.81,7.97,13.67,13.3,19.8l2.01,2.29l2.16,2.17
			l1.09,1.08c0.38,0.35,0.78,0.67,1.16,1.01l2.34,2l2.51,1.81l1.26,0.89l1.34,0.78c0.9,0.52,1.78,1.04,2.69,1.54l2.83,1.28
			c0.48,0.2,0.93,0.44,1.42,0.61l1.47,0.48c0.98,0.31,1.95,0.66,2.95,0.91l3.01,0.6c0.5,0.09,1,0.2,1.5,0.27l1.52,0.12
			c1.01,0.07,2.01,0.14,3.02,0.21c1-0.04,2-0.08,3-0.12l1.48-0.08c0.49-0.04,0.98-0.14,1.47-0.21c0.97-0.16,1.93-0.32,2.9-0.48
			l-0.08,0.98c5.04-0.87,9.91-2.26,14.65-3.98c4.72-1.78,9.29-3.91,13.78-6.23c4.46-2.37,8.82-4.96,13.1-7.69
			c4.24-2.79,8.46-5.67,12.54-8.75c16.36-12.26,31.49-26.49,44.83-41.87c5.76-6.19,10.28-11.63,14.6-17.29
			c4.28-5.68,8.36-11.51,13.17-18.51l1.25,0.34c3.55-7.5,8.02-15.05,11.99-21.55c2.23,1.07,4.48,2.15,6.73,3.23l1.69,0.81l1.84,0.85
			c1.22,0.58,2.46,1.12,3.7,1.69c4.95,2.22,10,4.32,15.16,6.13c10.3,3.62,21.08,6.08,31.89,6.06l-2.32,1.28
			c2.53-0.84,6.91,0.1,10.58,0.68c3.67,0.58,6.59,0.76,6.03-1.55c1.67,0.69,3.34,1.38,5.02,2.05c10.4-1.54,19.35,0,29.05,1.43
			c4.84,0.69,9.86,1.34,15.23,1.48c5.36,0.1,11.09-0.32,17.14-1.88l-1.52,1.21c6.53-1.38,13.92-3.23,18.86-3.47
			c-0.71,0.31-0.29,0.53-1.77,1.14c2.66-0.01,5.31-0.35,7.99-0.8c1.32-0.28,2.65-0.6,3.99-0.94c1.33-0.34,2.63-0.83,3.95-1.27
			c5.22-1.92,10.28-4.73,14.74-8.36c4.47-3.62,8.29-8.07,11.19-12.96c2.9-4.9,4.84-10.2,6.22-15.51c0.41,0.96,0.81,1.95,1.2,2.97
			c0.07-1.42,0.34-2.91,0.5-4.52c0.07-0.81,0.16-1.64,0.27-2.49c0.06-0.42,0.11-0.85,0.17-1.29c0.05-0.44,0.06-0.88,0.1-1.33
			c0.13-1.79,0.36-3.65,0.39-5.58c0.03-0.96,0.11-1.94,0.13-2.92c0-0.98-0.01-1.98-0.01-2.98c-0.02-8.01-1.26-16.4-3.41-23.06
			l1.09,0.61c-0.99-2.2-1.96-4.38-3.04-6.51l1.72-0.68c-2.45-8.83-5.94-16.99-9.77-24.86C689.58,479.85,685.36,472.28,681.15,464.55
			z"/>
		<path class="st1" d="M678.32,313.86c-0.04,0.04-0.07,0.11-0.14,0.15C678.1,314.56,678.2,314.31,678.32,313.86z"/>
		<path class="st1" d="M527.9,191.16c0.85-0.13,1.56-0.21,2.28-0.26C529.91,190.58,528.62,191.03,527.9,191.16z"/>
	</g>
</g>
</svg>
